<svg width="372" height="590" viewBox="0 0 372 590" fill="none" xmlns="http://www.w3.org/2000/svg">
<path opacity="0.5" fill-rule="evenodd" clip-rule="evenodd" d="M16 0C7.16344 0 0 7.16343 0 16V574C0 582.837 7.16345 590 16 590H356C364.837 590 372 582.837 372 574V16C372 7.16344 364.837 0 356 0H16ZM186 441C263.32 441 326 351.233 326 240.5C326 129.767 263.32 40 186 40C108.68 40 46 129.767 46 240.5C46 351.233 108.68 441 186 441Z" fill="black"/>
<path d="M322 240.5C322 295.149 306.527 344.452 281.715 379.985C256.895 415.532 222.992 437 186 437C149.008 437 115.105 415.532 90.2847 379.985C65.4733 344.452 50 295.149 50 240.5C50 185.851 65.4733 136.548 90.2847 101.015C115.105 65.4684 149.008 44 186 44C222.992 44 256.895 65.4684 281.715 101.015C306.527 136.548 322 185.851 322 240.5Z" stroke="#4BB66B" stroke-width="8"/>
<circle opacity="0.7" cx="186" cy="241" r="80" fill="white"/>
<path d="M173.474 274.333L144.333 242.733L151.619 234.832L173.474 258.533L220.381 207.667L227.667 215.567L173.474 274.333Z" fill="#4BB66B"/>
</svg>
