<svg width="372" height="590" viewBox="0 0 372 590" fill="none" xmlns="http://www.w3.org/2000/svg">
<path opacity="0.5" fill-rule="evenodd" clip-rule="evenodd" d="M16 0C7.16344 0 0 7.16343 0 16V574C0 582.837 7.16345 590 16 590H356C364.837 590 372 582.837 372 574V16C372 7.16344 364.837 0 356 0H16ZM186 441C263.32 441 326 351.233 326 240.5C326 129.767 263.32 40 186 40C108.68 40 46 129.767 46 240.5C46 351.233 108.68 441 186 441Z" fill="black"/>
<path fill-rule="evenodd" clip-rule="evenodd" d="M278.436 377.695C302.723 342.912 318 294.431 318 240.5C318 186.569 302.723 138.088 278.436 103.305C254.13 68.4952 221.324 48 186 48C150.676 48 117.87 68.4952 93.5643 103.305C69.2767 138.088 54 186.569 54 240.5C54 294.431 69.2767 342.912 93.5643 377.695C117.87 412.505 150.676 433 186 433C221.324 433 254.13 412.505 278.436 377.695ZM186 441C263.32 441 326 351.233 326 240.5C326 129.767 263.32 40 186 40C108.68 40 46 129.767 46 240.5C46 351.233 108.68 441 186 441Z" fill="#B64B4B"/>
</svg>
