<svg width="193" height="72" viewBox="0 0 193 72" fill="none" xmlns="http://www.w3.org/2000/svg">
<path d="M93.8117 19.16V26.648H80.2757V32.6H90.2597V39.752H80.2757V53H70.8677V19.16H93.8117ZM114.91 53L108.19 40.52H107.182V53H97.7739V19.16H112.606C115.326 19.16 117.63 19.64 119.518 20.6C121.406 21.528 122.83 22.824 123.79 24.488C124.75 26.12 125.23 27.96 125.23 30.008C125.23 32.312 124.59 34.344 123.31 36.104C122.062 37.832 120.222 39.064 117.79 39.8L125.422 53H114.91ZM107.182 34.088H111.838C113.118 34.088 114.078 33.784 114.718 33.176C115.358 32.568 115.678 31.688 115.678 30.536C115.678 29.448 115.342 28.6 114.67 27.992C114.03 27.352 113.086 27.032 111.838 27.032H107.182V34.088ZM142.276 53.336C138.34 53.336 135.108 52.408 132.58 50.552C130.052 48.664 128.692 45.976 128.5 42.488H138.532C138.628 43.672 138.98 44.536 139.588 45.08C140.196 45.624 140.98 45.896 141.94 45.896C142.804 45.896 143.508 45.688 144.052 45.272C144.628 44.824 144.916 44.216 144.916 43.448C144.916 42.456 144.452 41.688 143.524 41.144C142.596 40.6 141.092 39.992 139.012 39.32C136.804 38.584 135.012 37.88 133.636 37.208C132.292 36.504 131.108 35.496 130.084 34.184C129.092 32.84 128.596 31.096 128.596 28.952C128.596 26.776 129.14 24.92 130.228 23.384C131.316 21.816 132.82 20.632 134.74 19.832C136.66 19.032 138.836 18.632 141.268 18.632C145.204 18.632 148.34 19.56 150.676 21.416C153.044 23.24 154.308 25.816 154.468 29.144H144.244C144.212 28.12 143.892 27.352 143.284 26.84C142.708 26.328 141.956 26.072 141.028 26.072C140.324 26.072 139.748 26.28 139.3 26.696C138.852 27.112 138.628 27.704 138.628 28.472C138.628 29.112 138.868 29.672 139.348 30.152C139.86 30.6 140.484 31 141.22 31.352C141.956 31.672 143.044 32.088 144.484 32.6C146.628 33.336 148.388 34.072 149.764 34.808C151.172 35.512 152.372 36.52 153.364 37.832C154.388 39.112 154.9 40.744 154.9 42.728C154.9 44.744 154.388 46.552 153.364 48.152C152.372 49.752 150.916 51.016 148.996 51.944C147.108 52.872 144.868 53.336 142.276 53.336ZM180.682 47.48H168.682L166.858 53H156.97L169.306 19.16H180.154L192.442 53H182.506L180.682 47.48ZM178.33 40.28L174.682 29.336L171.082 40.28H178.33Z" fill="#1A6BD5"/>
<path fill-rule="evenodd" clip-rule="evenodd" d="M7.1967 13.1967C8.60322 11.7902 10.5109 11 12.5 11H17.5C18.8807 11 20 12.1193 20 13.5C20 14.8807 18.8807 16 17.5 16H12.5C11.837 16 11.2011 16.2634 10.7322 16.7322C10.2634 17.2011 10 17.837 10 18.5V23.5C10 24.8807 8.88071 26 7.5 26C6.11929 26 5 24.8807 5 23.5V18.5C5 16.5109 5.79018 14.6032 7.1967 13.1967ZM40 13.5C40 12.1193 41.1193 11 42.5 11H47.5C49.4891 11 51.3968 11.7902 52.8033 13.1967C54.2098 14.6032 55 16.5109 55 18.5V23.5C55 24.8807 53.8807 26 52.5 26C51.1193 26 50 24.8807 50 23.5V18.5C50 17.837 49.7366 17.2011 49.2678 16.7322C48.7989 16.2634 48.163 16 47.5 16H42.5C41.1193 16 40 14.8807 40 13.5ZM20 23.5C21.3807 23.5 22.5 24.6193 22.5 26V31C22.5 32.3807 21.3807 33.5 20 33.5C18.6193 33.5 17.5 32.3807 17.5 31V26C17.5 24.6193 18.6193 23.5 20 23.5ZM30 23.5C31.3807 23.5 32.5 24.6193 32.5 26V38.5C32.5 39.8807 31.3807 41 30 41H27.5C26.1193 41 25 39.8807 25 38.5C25 37.1193 26.1193 36 27.5 36V26C27.5 24.6193 28.6193 23.5 30 23.5ZM40 23.5C41.3807 23.5 42.5 24.6193 42.5 26V31C42.5 32.3807 41.3807 33.5 40 33.5C38.6193 33.5 37.5 32.3807 37.5 31V26C37.5 24.6193 38.6193 23.5 40 23.5ZM24.2661 44.2306C24.2661 44.2305 24.2661 44.2305 24.2661 44.2305L24.2651 44.2296L24.2644 44.2289L24.2637 44.2282L24.2613 44.2258L24.2556 44.2202L24.2468 44.2116L24.2392 44.2042C24.2389 44.204 24.24 44.205 24.2425 44.2073C24.2496 44.2142 24.2567 44.2212 24.2637 44.2282C24.2642 44.2287 24.2647 44.2291 24.2651 44.2296C24.2655 44.2299 24.2658 44.2302 24.2661 44.2306ZM24.2425 44.2073C24.2463 44.2108 24.2533 44.2171 24.2634 44.226C24.2973 44.2556 24.3657 44.3134 24.4687 44.3906C24.6751 44.5454 25.0168 44.7758 25.493 45.0139C26.4373 45.4861 27.9319 46 30 46C32.0681 46 33.5627 45.4861 34.507 45.0139C34.9832 44.7758 35.3249 44.5454 35.5312 44.3906C35.6343 44.3134 35.7027 44.2556 35.7366 44.226C35.7467 44.2171 35.7537 44.2108 35.7575 44.2073C36.7357 43.256 38.2998 43.2643 39.2678 44.2322C40.2441 45.2085 40.2441 46.7915 39.2678 47.7678L37.5 46C39.2678 47.7678 39.2669 47.7686 39.266 47.7695L39.2642 47.7713L39.2604 47.7751L39.252 47.7834L39.2322 47.8028L39.1806 47.8519C39.1408 47.8892 39.0903 47.9353 39.0291 47.9889C38.9066 48.096 38.7407 48.2335 38.5313 48.3906C38.1126 48.7046 37.5168 49.0992 36.743 49.4861C35.1873 50.2639 32.9319 51 30 51C27.0681 51 24.8127 50.2639 23.257 49.4861C22.4832 49.0992 21.8874 48.7046 21.4688 48.3906C21.2593 48.2335 21.0934 48.096 20.9709 47.9889C20.9097 47.9353 20.8592 47.8892 20.8194 47.8519L20.7678 47.8028L20.748 47.7834L20.7396 47.7751L20.7358 47.7713L20.734 47.7695C20.7331 47.7686 20.7322 47.7678 22.5 46L20.7322 47.7678C19.7559 46.7915 19.7559 45.2085 20.7322 44.2322C21.7002 43.2643 23.2643 43.256 24.2425 44.2073ZM7.5 46C8.88071 46 10 47.1193 10 48.5V53.5C10 54.163 10.2634 54.7989 10.7322 55.2678C11.2011 55.7366 11.837 56 12.5 56H17.5C18.8807 56 20 57.1193 20 58.5C20 59.8807 18.8807 61 17.5 61H12.5C10.5109 61 8.60322 60.2098 7.1967 58.8033C5.79018 57.3968 5 55.4891 5 53.5V48.5C5 47.1193 6.11929 46 7.5 46ZM52.5 46C53.8807 46 55 47.1193 55 48.5V53.5C55 55.4891 54.2098 57.3968 52.8033 58.8033C51.3968 60.2098 49.4891 61 47.5 61H42.5C41.1193 61 40 59.8807 40 58.5C40 57.1193 41.1193 56 42.5 56H47.5C48.163 56 48.7989 55.7366 49.2678 55.2678C49.7366 54.7989 50 54.163 50 53.5V48.5C50 47.1193 51.1193 46 52.5 46Z" fill="#1A6BD5"/>
</svg>
