<svg width="372" height="590" viewBox="0 0 372 590" fill="none" xmlns="http://www.w3.org/2000/svg">
<path opacity="0.5" fill-rule="evenodd" clip-rule="evenodd" d="M16 0C7.16344 0 0 7.16343 0 16V574C0 582.837 7.16345 590 16 590H356C364.837 590 372 582.837 372 574V16C372 7.16344 364.837 0 356 0H16ZM186 441C263.32 441 326 351.233 326 240.5C326 129.767 263.32 40 186 40C108.68 40 46 129.767 46 240.5C46 351.233 108.68 441 186 441Z" fill="black"/>
<path fill-rule="evenodd" clip-rule="evenodd" d="M278.436 377.695C302.723 342.912 318 294.431 318 240.5C318 186.569 302.723 138.088 278.436 103.305C254.13 68.4952 221.324 48 186 48C150.676 48 117.87 68.4952 93.5643 103.305C69.2767 138.088 54 186.569 54 240.5C54 294.431 69.2767 342.912 93.5643 377.695C117.87 412.505 150.676 433 186 433C221.324 433 254.13 412.505 278.436 377.695ZM186 441C263.32 441 326 351.233 326 240.5C326 129.767 263.32 40 186 40C108.68 40 46 129.767 46 240.5C46 351.233 108.68 441 186 441Z" fill="#B64B4B"/>
<circle opacity="0.7" cx="186" cy="241" r="80" fill="white"/>
<path d="M160.267 206.133L186 231.867L211.6 206.267C212.166 205.665 212.847 205.183 213.603 204.851C214.359 204.519 215.174 204.343 216 204.333C217.768 204.333 219.464 205.036 220.714 206.286C221.964 207.536 222.667 209.232 222.667 211C222.682 211.817 222.531 212.629 222.221 213.386C221.912 214.142 221.451 214.828 220.867 215.4L194.933 241L220.867 266.933C221.965 268.008 222.61 269.464 222.667 271C222.667 272.768 221.964 274.464 220.714 275.714C219.464 276.964 217.768 277.667 216 277.667C215.15 277.702 214.303 277.56 213.511 277.25C212.719 276.94 212 276.469 211.4 275.867L186 250.133L160.333 275.8C159.77 276.382 159.097 276.846 158.353 277.167C157.61 277.487 156.81 277.657 156 277.667C154.232 277.667 152.536 276.964 151.286 275.714C150.036 274.464 149.333 272.768 149.333 271C149.318 270.183 149.469 269.371 149.779 268.614C150.089 267.857 150.549 267.172 151.133 266.6L177.067 241L151.133 215.067C150.035 213.992 149.39 212.536 149.333 211C149.333 209.232 150.036 207.536 151.286 206.286C152.536 205.036 154.232 204.333 156 204.333C157.6 204.353 159.133 205 160.267 206.133Z" fill="#B64B4B"/>
</svg>
