<svg width="125" height="138" viewBox="0 0 125 138" fill="none" xmlns="http://www.w3.org/2000/svg">
<path d="M25.8117 85.16V92.648H12.2757V98.6H22.2597V105.752H12.2757V119H2.86769V85.16H25.8117ZM46.9099 119L40.1899 106.52H39.1819V119H29.7739V85.16H44.6059C47.3259 85.16 49.6299 85.64 51.5179 86.6C53.4059 87.528 54.8299 88.824 55.7899 90.488C56.7499 92.12 57.2299 93.96 57.2299 96.008C57.2299 98.312 56.5899 100.344 55.3099 102.104C54.0619 103.832 52.2219 105.064 49.7899 105.8L57.4219 119H46.9099ZM39.1819 100.088H43.8379C45.1179 100.088 46.0779 99.784 46.7179 99.176C47.3579 98.568 47.6779 97.688 47.6779 96.536C47.6779 95.448 47.3419 94.6 46.6699 93.992C46.0299 93.352 45.0859 93.032 43.8379 93.032H39.1819V100.088ZM74.2763 119.336C70.3403 119.336 67.1083 118.408 64.5803 116.552C62.0523 114.664 60.6923 111.976 60.5003 108.488H70.5323C70.6283 109.672 70.9803 110.536 71.5883 111.08C72.1963 111.624 72.9803 111.896 73.9403 111.896C74.8043 111.896 75.5083 111.688 76.0523 111.272C76.6283 110.824 76.9163 110.216 76.9163 109.448C76.9163 108.456 76.4523 107.688 75.5243 107.144C74.5963 106.6 73.0923 105.992 71.0123 105.32C68.8043 104.584 67.0123 103.88 65.6363 103.208C64.2923 102.504 63.1083 101.496 62.0843 100.184C61.0923 98.84 60.5963 97.096 60.5963 94.952C60.5963 92.776 61.1403 90.92 62.2283 89.384C63.3163 87.816 64.8203 86.632 66.7403 85.832C68.6603 85.032 70.8363 84.632 73.2683 84.632C77.2043 84.632 80.3403 85.56 82.6763 87.416C85.0443 89.24 86.3083 91.816 86.4683 95.144H76.2443C76.2123 94.12 75.8923 93.352 75.2843 92.84C74.7083 92.328 73.9563 92.072 73.0283 92.072C72.3243 92.072 71.7483 92.28 71.3003 92.696C70.8523 93.112 70.6283 93.704 70.6283 94.472C70.6283 95.112 70.8683 95.672 71.3483 96.152C71.8603 96.6 72.4843 97 73.2203 97.352C73.9563 97.672 75.0443 98.088 76.4843 98.6C78.6283 99.336 80.3883 100.072 81.7643 100.808C83.1723 101.512 84.3723 102.52 85.3643 103.832C86.3883 105.112 86.9003 106.744 86.9003 108.728C86.9003 110.744 86.3883 112.552 85.3643 114.152C84.3723 115.752 82.9163 117.016 80.9963 117.944C79.1083 118.872 76.8683 119.336 74.2763 119.336ZM112.682 113.48H100.682L98.8579 119H88.9699L101.306 85.16H112.154L124.442 119H114.506L112.682 113.48ZM110.33 106.28L106.682 95.336L103.082 106.28H110.33Z" fill="#1A6BD5"/>
<path fill-rule="evenodd" clip-rule="evenodd" d="M39.1967 7.1967C40.6032 5.79018 42.5109 5 44.5 5H49.5C50.8807 5 52 6.11929 52 7.5C52 8.88071 50.8807 10 49.5 10H44.5C43.837 10 43.2011 10.2634 42.7322 10.7322C42.2634 11.2011 42 11.837 42 12.5V17.5C42 18.8807 40.8807 20 39.5 20C38.1193 20 37 18.8807 37 17.5V12.5C37 10.5109 37.7902 8.60322 39.1967 7.1967ZM72 7.5C72 6.11929 73.1193 5 74.5 5H79.5C81.4891 5 83.3968 5.79018 84.8033 7.1967C86.2098 8.60322 87 10.5109 87 12.5V17.5C87 18.8807 85.8807 20 84.5 20C83.1193 20 82 18.8807 82 17.5V12.5C82 11.837 81.7366 11.2011 81.2678 10.7322C80.7989 10.2634 80.163 10 79.5 10H74.5C73.1193 10 72 8.88071 72 7.5ZM52 17.5C53.3807 17.5 54.5 18.6193 54.5 20V25C54.5 26.3807 53.3807 27.5 52 27.5C50.6193 27.5 49.5 26.3807 49.5 25V20C49.5 18.6193 50.6193 17.5 52 17.5ZM62 17.5C63.3807 17.5 64.5 18.6193 64.5 20V32.5C64.5 33.8807 63.3807 35 62 35H59.5C58.1193 35 57 33.8807 57 32.5C57 31.1193 58.1193 30 59.5 30V20C59.5 18.6193 60.6193 17.5 62 17.5ZM72 17.5C73.3807 17.5 74.5 18.6193 74.5 20V25C74.5 26.3807 73.3807 27.5 72 27.5C70.6193 27.5 69.5 26.3807 69.5 25V20C69.5 18.6193 70.6193 17.5 72 17.5ZM56.2661 38.2306C56.2661 38.2305 56.2661 38.2305 56.2661 38.2305L56.2651 38.2296L56.2644 38.2289L56.2637 38.2282L56.2613 38.2258L56.2556 38.2202L56.2468 38.2116L56.2392 38.2042C56.2389 38.204 56.24 38.205 56.2425 38.2073C56.2496 38.2142 56.2567 38.2212 56.2637 38.2282C56.2642 38.2287 56.2647 38.2291 56.2651 38.2296C56.2655 38.2299 56.2658 38.2302 56.2661 38.2306ZM56.2425 38.2073C56.2463 38.2108 56.2533 38.2171 56.2634 38.226C56.2973 38.2556 56.3657 38.3134 56.4687 38.3906C56.6751 38.5454 57.0168 38.7758 57.493 39.0139C58.4373 39.4861 59.9319 40 62 40C64.0681 40 65.5627 39.4861 66.507 39.0139C66.9832 38.7758 67.3249 38.5454 67.5312 38.3906C67.6343 38.3134 67.7027 38.2556 67.7366 38.226C67.7467 38.2171 67.7537 38.2108 67.7575 38.2073C68.7357 37.256 70.2998 37.2643 71.2678 38.2322C72.2441 39.2085 72.2441 40.7915 71.2678 41.7678L69.5 40C71.2678 41.7678 71.2669 41.7686 71.266 41.7695L71.2642 41.7713L71.2604 41.7751L71.252 41.7834L71.2322 41.8028L71.1806 41.8519C71.1408 41.8892 71.0903 41.9353 71.0291 41.9889C70.9066 42.096 70.7407 42.2335 70.5313 42.3906C70.1126 42.7046 69.5168 43.0992 68.743 43.4861C67.1873 44.2639 64.9319 45 62 45C59.0681 45 56.8127 44.2639 55.257 43.4861C54.4832 43.0992 53.8874 42.7046 53.4688 42.3906C53.2593 42.2335 53.0934 42.096 52.9709 41.9889C52.9097 41.9353 52.8592 41.8892 52.8194 41.8519L52.7678 41.8028L52.748 41.7834L52.7396 41.7751L52.7358 41.7713L52.734 41.7695C52.7331 41.7686 52.7322 41.7678 54.5 40L52.7322 41.7678C51.7559 40.7915 51.7559 39.2085 52.7322 38.2322C53.7002 37.2643 55.2643 37.256 56.2425 38.2073ZM39.5 40C40.8807 40 42 41.1193 42 42.5V47.5C42 48.163 42.2634 48.7989 42.7322 49.2678C43.2011 49.7366 43.837 50 44.5 50H49.5C50.8807 50 52 51.1193 52 52.5C52 53.8807 50.8807 55 49.5 55H44.5C42.5109 55 40.6032 54.2098 39.1967 52.8033C37.7902 51.3968 37 49.4891 37 47.5V42.5C37 41.1193 38.1193 40 39.5 40ZM84.5 40C85.8807 40 87 41.1193 87 42.5V47.5C87 49.4891 86.2098 51.3968 84.8033 52.8033C83.3968 54.2098 81.4891 55 79.5 55H74.5C73.1193 55 72 53.8807 72 52.5C72 51.1193 73.1193 50 74.5 50H79.5C80.163 50 80.7989 49.7366 81.2678 49.2678C81.7366 48.7989 82 48.163 82 47.5V42.5C82 41.1193 83.1193 40 84.5 40Z" fill="#1A6BD5"/>
</svg>
