<svg width="152" height="152" viewBox="0 0 152 152" fill="none" xmlns="http://www.w3.org/2000/svg">
<path fill-rule="evenodd" clip-rule="evenodd" d="M12.3543 12.3543C14.7689 9.93981 18.0437 8.58334 21.4583 8.58334H30.0417C32.4119 8.58334 34.3333 10.5048 34.3333 12.875C34.3333 15.2452 32.4119 17.1667 30.0417 17.1667H21.4583C20.3201 17.1667 19.2285 17.6188 18.4237 18.4237C17.6188 19.2285 17.1667 20.3201 17.1667 21.4583V30.0417C17.1667 32.4119 15.2452 34.3333 12.875 34.3333C10.5048 34.3333 8.58334 32.4119 8.58334 30.0417V21.4583C8.58334 18.0437 9.93981 14.7689 12.3543 12.3543ZM68.6667 12.875C68.6667 10.5048 70.5881 8.58334 72.9583 8.58334H81.5417C84.9563 8.58334 88.2311 9.93981 90.6457 12.3543C93.0602 14.7689 94.4167 18.0437 94.4167 21.4583V30.0417C94.4167 32.4119 92.4952 34.3333 90.125 34.3333C87.7548 34.3333 85.8333 32.4119 85.8333 30.0417V21.4583C85.8333 20.3201 85.3812 19.2285 84.5763 18.4237C83.7715 17.6188 82.6799 17.1667 81.5417 17.1667H72.9583C70.5881 17.1667 68.6667 15.2452 68.6667 12.875ZM34.3333 30.0417C36.7036 30.0417 38.625 31.9631 38.625 34.3333V42.9167C38.625 45.2869 36.7036 47.2083 34.3333 47.2083C31.9631 47.2083 30.0417 45.2869 30.0417 42.9167V34.3333C30.0417 31.9631 31.9631 30.0417 34.3333 30.0417ZM51.5 30.0417C53.8702 30.0417 55.7917 31.9631 55.7917 34.3333V55.7917C55.7917 58.1619 53.8702 60.0833 51.5 60.0833H47.2083C44.8381 60.0833 42.9167 58.1619 42.9167 55.7917C42.9167 53.4215 44.8381 51.5 47.2083 51.5V34.3333C47.2083 31.9631 49.1298 30.0417 51.5 30.0417ZM68.6667 30.0417C71.0369 30.0417 72.9583 31.9631 72.9583 34.3333V42.9167C72.9583 45.2869 71.0369 47.2083 68.6667 47.2083C66.2965 47.2083 64.375 45.2869 64.375 42.9167V34.3333C64.375 31.9631 66.2965 30.0417 68.6667 30.0417ZM41.6568 65.6291C41.6568 65.6291 41.6568 65.6291 41.6568 65.6291L41.6552 65.6275L41.6539 65.6263L41.6527 65.6251L41.6485 65.6209L41.6388 65.6113L41.6237 65.5965L41.6106 65.5839C41.6101 65.5835 41.612 65.5853 41.6163 65.5892C41.6285 65.6011 41.6406 65.613 41.6527 65.6251C41.6535 65.6259 41.6544 65.6267 41.6552 65.6275C41.6557 65.6281 41.6563 65.6286 41.6568 65.6291ZM41.6163 65.5892C41.6228 65.5951 41.6348 65.606 41.6523 65.6213C41.7103 65.6721 41.8279 65.7713 42.0047 65.9039C42.3589 66.1696 42.9455 66.5652 43.7631 66.9739C45.3841 67.7844 47.9498 68.6667 51.5 68.6667C55.0502 68.6667 57.6159 67.7844 59.237 66.9739C60.0545 66.5652 60.6411 66.1696 60.9953 65.9039C61.1721 65.7713 61.2897 65.6721 61.3478 65.6213C61.3652 65.606 61.3772 65.5951 61.3837 65.5892C63.0629 63.9561 65.7481 63.9704 67.4097 65.632C69.0857 67.308 69.0857 70.0253 67.4097 71.7013L64.375 68.6667C67.4097 71.7013 67.4082 71.7028 67.4067 71.7044L67.4035 71.7075L67.397 71.714L67.3825 71.7283L67.3486 71.7614L67.26 71.8458C67.1917 71.9098 67.1051 71.9889 66.9999 72.0809C66.7897 72.2648 66.505 72.5009 66.1453 72.7706C65.4266 73.3096 64.4039 73.9869 63.0755 74.6511C60.4049 75.9864 56.5331 77.25 51.5 77.25C46.4669 77.25 42.5951 75.9864 39.9245 74.6511C38.5962 73.9869 37.5734 73.3096 36.8547 72.7706C36.4951 72.5009 36.2103 72.2648 36.0001 72.0809C35.8949 71.9889 35.8083 71.9098 35.7401 71.8458L35.6515 71.7614L35.6175 71.7283L35.6031 71.714L35.5965 71.7075L35.5934 71.7044C35.5918 71.7028 35.5903 71.7013 38.625 68.6667L35.5903 71.7013C33.9143 70.0253 33.9143 67.308 35.5903 65.632C37.2519 63.9704 39.9371 63.9561 41.6163 65.5892ZM12.875 68.6667C15.2452 68.6667 17.1667 70.5881 17.1667 72.9583V81.5417C17.1667 82.6799 17.6188 83.7715 18.4237 84.5763C19.2285 85.3812 20.3201 85.8333 21.4583 85.8333H30.0417C32.4119 85.8333 34.3333 87.7548 34.3333 90.125C34.3333 92.4952 32.4119 94.4167 30.0417 94.4167H21.4583C18.0437 94.4167 14.7689 93.0602 12.3543 90.6457C9.93981 88.2311 8.58334 84.9563 8.58334 81.5417V72.9583C8.58334 70.5881 10.5048 68.6667 12.875 68.6667ZM90.125 68.6667C92.4952 68.6667 94.4167 70.5881 94.4167 72.9583V81.5417C94.4167 84.9563 93.0602 88.2311 90.6457 90.6457C88.2311 93.0602 84.9563 94.4167 81.5417 94.4167H72.9583C70.5881 94.4167 68.6667 92.4952 68.6667 90.125C68.6667 87.7548 70.5881 85.8333 72.9583 85.8333H81.5417C82.6799 85.8333 83.7715 85.3812 84.5763 84.5763C85.3812 83.7715 85.8333 82.6799 85.8333 81.5417V72.9583C85.8333 70.5881 87.7548 68.6667 90.125 68.6667Z" fill="#1A6BD5"/>
<path d="M78.2198 132.333L43.8333 95.0443L52.43 85.7221L78.2198 113.689L133.57 53.6667L142.167 62.9889L78.2198 132.333Z" fill="#4BB66B"/>
</svg>
